<svg height="490pt" viewBox="0 -15 490.28189 490" width="490pt" xmlns="http://www.w3.org/2000/svg"><path d="m206.820312 382.738281c17.917969 0 32.449219-14.527343 32.449219-32.449219 0-17.921874-14.527343-32.449218-32.449219-32.449218-17.921874 0-32.449218 14.53125-32.449218 32.449218.023437 17.914063 14.535156 32.425782 32.449218 32.449219zm0-50.894531c10.1875-.003906 18.449219 8.257812 18.449219 18.445312s-8.261719 18.449219-18.449219 18.449219-18.449218-8.257812-18.449218-18.449219c.011718-10.183593 8.265625-18.433593 18.449218-18.445312zm0 0"/><path d="m152.285156 408.914062v44.957032c0 3.867187 3.167969 6.589844 7.035156 6.589844h95c1.808594.09375 3.574219-.558594 4.890626-1.804688 1.316406-1.246094 2.066406-2.972656 2.074218-4.785156v-44.957032c-.019531-7.875-3.183594-15.417968-8.789062-20.949218-5.605469-5.53125-13.191406-8.589844-21.066406-8.503906-2.191407-.085938-4.292969.894531-5.640626 2.632812-1.414062 1.886719-3.109374 3.542969-5.027343 4.917969-10.480469 7.566406-25.082031 5.394531-32.910157-4.890625-1.339843-1.746094-3.441406-2.734375-5.640624-2.660156-7.882813-.089844-15.476563 2.964843-21.09375 8.496093-5.621094 5.53125-8.800782 13.074219-8.832032 20.957031zm14 0c.019532-7.597656 5.398438-14.125 12.851563-15.597656 7.105469 7.757813 17.140625 12.179688 27.664062 12.179688 10.519531 0 20.554688-4.421875 27.660157-12.179688 7.449218 1.472656 12.816406 8.003906 12.824218 15.597656v37.546876h-81zm0 0"/><path d="m321.5 382.738281c17.921875 0 32.449219-14.527343 32.449219-32.449219 0-17.921874-14.527344-32.449218-32.449219-32.449218s-32.449219 14.53125-32.449219 32.449218c.023438 17.914063 14.535157 32.425782 32.449219 32.449219zm0-50.894531c10.1875-.003906 18.449219 8.257812 18.449219 18.445312s-8.261719 18.449219-18.449219 18.449219-18.449219-8.257812-18.449219-18.449219c.011719-10.183593 8.265625-18.433593 18.449219-18.445312zm0 0"/><path d="m267.285156 408.914062v44.957032c-.050781 1.785156.644532 3.507812 1.917969 4.757812s3.011719 1.914063 4.792969 1.832032h95c3.867187 0 7.285156-2.722657 7.285156-6.589844v-44.957032c.003906-16.480468-13.6875-29.453124-30.167969-29.453124-2.195312-.085938-4.296875.894531-5.640625 2.632812-1.414062 1.886719-3.113281 3.546875-5.035156 4.917969-10.476562 7.566406-25.078125 5.394531-32.902344-4.890625-1.34375-1.746094-3.445312-2.734375-5.644531-2.660156-7.851563-.078126-15.402344 2.996093-20.96875 8.53125-5.566406 5.535156-8.675781 13.074218-8.636719 20.921874zm14 0c-.050781-7.566406 5.269532-14.109374 12.691406-15.597656 12.910157 14.113282 34.386719 16.214844 49.785157 4.867188 2.003906-1.441406 3.867187-3.070313 5.558593-4.871094 7.476563 1.460938 12.898438 7.980469 12.964844 15.601562v37.546876h-81zm0 0"/><path d="m436.179688 382.738281c17.917968 0 32.445312-14.527343 32.445312-32.449219 0-17.921874-14.527344-32.449218-32.449219-32.449218-17.917969 0-32.445312 14.53125-32.445312 32.449218.019531 17.914063 14.535156 32.429688 32.449219 32.449219zm0-50.894531c10.1875 0 18.445312 8.257812 18.445312 18.445312s-8.257812 18.449219-18.445312 18.449219c-10.191407 0-18.449219-8.261719-18.449219-18.449219.011719-10.183593 8.265625-18.433593 18.449219-18.445312zm0 0"/><path d="m460.785156 379.460938c-2.195312-.085938-4.296875.894531-5.640625 2.632812-1.414062 1.886719-3.113281 3.542969-5.03125 4.917969-10.429687 7.734375-25.15625 5.558593-32.90625-4.863281-1.339843-1.75-3.4375-2.75-5.636719-2.6875-16.484374 0-30.285156 12.972656-30.285156 29.453124v44.957032c0 3.867187 3.523438 6.589844 7.390625 6.589844h95c1.773438.078124 3.492188-.589844 4.75-1.84375 1.253907-1.253907 1.925781-2.972657 1.851563-4.746094v-44.957032c.0625-7.835937-3.023438-15.371093-8.570313-20.90625-5.542969-5.539062-13.082031-8.617187-20.917969-8.546874zm2.851563 13.847656c7.417969 1.492187 12.722656 8.042968 12.648437 15.605468v37.546876h-81v-37.546876c.097656-7.632812 5.539063-14.148437 13.035156-15.605468 7.109376 7.746094 17.144532 12.15625 27.660157 12.15625s20.550781-4.410156 27.660156-12.15625zm0 0"/><path d="m86.785156 92.265625c21.835938-.03125 39.515625-17.75 39.5-39.585937v-13.039063c0-21.816406-17.683594-39.5-39.5-39.5s-39.5 17.683594-39.5 39.5v13.039063c-.019531 21.835937 17.664063 39.554687 39.5 39.585937zm-25.5-52.625c0-14.082031 11.414063-25.5 25.5-25.5 14.082032 0 25.5 11.417969 25.5 25.5v13.039063c0 14.082031-11.417968 25.5-25.5 25.5-14.085937 0-25.5-11.417969-25.5-25.5zm0 0"/><path d="m.285156 236.992188c-.03125 6.546874 2.578125 12.832031 7.234375 17.433593 4.65625 4.605469 10.96875 7.140625 17.515625 7.035157h.011719l.277344.25c4.285156-.011719 8.492187-1.152344 12.191406-3.316407l4.449219 149.777344c.371094 10.738281 7.195312 20.1875 17.273437 23.914063 10.078125 3.730468 21.410157 1 28.683594-6.910157 7.265625 7.925781 18.605469 10.667969 28.6875 6.9375 10.085937-3.726562 16.910156-13.183593 17.273437-23.929687l4.445313-149.457032c3.683594 2.125 7.867187 3.246094 12.125 3.242188 6.609375-.015625 12.941406-2.65625 17.601563-7.347656 4.65625-4.6875 7.257812-11.035156 7.230468-17.644532v-99.828124c2.199219-22.289063-14.042968-42.160157-36.324218-44.441407-1.339844-.148437-2.6875-.230469-4.035157-.246093h-17.164062c-1.78125.015624-3.496094.707031-4.789063 1.933593l-25.050781 23.527344-24.078125-23.449219c-1.304688-1.277344-3.054688-2-4.878906-2.011718h-18.214844c-10.835938-.003907-21.230469 4.3125-28.875 11.992187-7.648438 7.675781-11.921875 18.085937-11.875 28.921875 0 1.25.285156 2.527344.285156 3.773438zm107.308594 182.769531c-3.292969-.011719-6.445312-1.335938-8.753906-3.679688-2.3125-2.34375-3.59375-5.515625-3.554688-8.808593v-147.226563c0-3.867187-3.136718-7-7-7-3.867187 0-7 3.132813-7 7v147.226563c-.082031 6.835937-5.589844 12.367187-12.425781 12.472656-6.835937.109375-12.515625-5.242188-12.8125-12.070313l-5.207031-172.214843h74.164062l-5.019531 172.171874c-.171875 6.726563-5.660156 12.101563-12.390625 12.128907zm-85.835938-305.398438c5.023438-5.0625 11.863282-7.90625 18.992188-7.902343h15.371094l26.832031 26.140624c.046875.042969.09375.101563.140625.140626.09375.089843.191406.183593.289062.265624.082032.070313.167969.140626.253907.207032.085937.0625.199219.148437.304687.21875.105469.066406.183594.121094.277344.175781.09375.058594.203125.125.3125.179687.109375.054688.199219.101563.300781.152344.097657.054688.199219.09375.304688.136719.109375.042969.21875.089844.328125.128906.109375.039063.199218.070313.308594.097657.109374.03125.226562.066406.339843.097656.113281.027344.207031.046875.3125.070312.105469.019532.230469.042969.347657.0625.117187.015625.214843.027344.320312.039063s.230469.023437.34375.027343c.113281.007813.21875.011719.328125.011719h.335937c.113282 0 .226563-.011719.339844-.019531.113282-.011719.21875-.023438.324219-.039062.109375-.015626.230469-.03125.347656-.054688.113281-.019531.207031-.039062.3125-.066406.105469-.023438.230469-.054688.34375-.085938.113281-.035156.207031-.0625.308594-.101562.101563-.039063.222656-.078125.332031-.121094.109375-.046875.199219-.085938.304688-.128906.105468-.046875.210937-.101563.316406-.152344.101562-.054688.199219-.109375.300781-.164062.097657-.058594.199219-.117188.296875-.183594.101563-.0625.203125-.128906.292969-.199219s.1875-.136719.277344-.210937c.089843-.074219.183593-.152344.269531-.230469.050781-.042969.105469-.121094.15625-.167969l27.910156-26.226562h14.386719c8.050781.125 15.648437 3.753906 20.808594 9.9375 4.476562 5.53125 6.546875 12.628906 5.75 19.699218-.023438.234375-.199219.480469-.199219.714844v100.164062c0 6.074219-4.921875 11-11 11-6.074219 0-11-4.925781-11-11v-21.800781l.101562-3.484375c.011719-.488281-.101562-.964844-.101562-1.429687v-40.328125c0-3.867188-3.132812-7-7-7-3.863281 0-7 3.132812-7 7v45.027344l.136719 6.5h-74.992188l-.171875-10.28125c-.011718-.328126.03125-.554688.03125-.871094v-40.375c0-3.867188-3.136718-7-7-7-3.867187 0-7 3.132812-7 7v66.550781c-.011718 2.929687-1.1875 5.734375-3.269531 7.792969-2.085937 2.058594-4.902344 3.207031-7.832031 3.183594h-.148438c-2.847656.101562-5.609375-.972657-7.648437-2.964844-2.027344-1.964844-3.148438-4.683594-3.101563-7.507813v-100.175781c0-.238281-.125-.472656-.148437-.707031-.089844-.902344-.191407-1.828125-.191407-2.730469-.042968-7.125 2.773438-13.972656 7.8125-19.011719zm0 0"/><path d="m190.261719 63.460938h11.023437v143c.015625 7.457031 3 14.597656 8.289063 19.851562 5.292969 5.253906 12.453125 8.183594 19.910156 8.148438h88.066406l-48.550781 43.355468c-2.171875 1.941406-2.921875 5.023438-1.890625 7.746094 1.03125 2.726562 3.636719 4.535156 6.550781 4.550781 1.714844.007813 3.371094-.617187 4.652344-1.757812l53.652344-47.792969 53.652344 47.800781c2.882812 2.570313 7.308593 2.316407 9.882812-.570312 2.570312-2.921875 2.316406-7.367188-.570312-9.980469l-48.550782-43.351562h88.066406c7.417969.023437 14.535157-2.925782 19.765626-8.183594 5.230468-5.261719 8.136718-12.398438 8.074218-19.816406v-143h11.738282c3.953124-.066407 7.152343-3.234376 7.261718-7.1875v-48.058594c-.148437-3.867188-3.394531-6.886719-7.261718-6.753906h-283.761719c-1.828125-.054688-3.601563.632812-4.914063 1.902343-1.3125 1.273438-2.058594 3.023438-2.0625 4.851563v48.058594c-.027344 3.898437 3.078125 7.097656 6.976563 7.1875zm258.023437 143c.070313 3.707031-1.363281 7.285156-3.96875 9.917968-2.605468 2.636719-6.164062 4.109375-9.871094 4.082032h-204.960937c-3.742187.042968-7.347656-1.414063-10.015625-4.042969-2.664062-2.628907-4.171875-6.210938-4.183594-9.957031v-143h233zm-251-191h270v34h-270zm0 0"/><path d="m247.285156 118.460938h129c3.863282 0 7-3.132813 7-7 0-3.863282-3.136718-7-7-7h-129c-3.867187 0-7 3.136718-7 7 0 3.867187 3.132813 7 7 7zm0 0"/><path d="m247.285156 146.460938h170c3.863282 0 7-3.132813 7-7 0-3.863282-3.136718-7-7-7h-170c-3.867187 0-7 3.136718-7 7 0 3.867187 3.132813 7 7 7zm0 0"/><path d="m247.285156 173.460938h170c3.863282 0 7-3.132813 7-7 0-3.863282-3.136718-7-7-7h-170c-3.867187 0-7 3.136718-7 7 0 3.867187 3.132813 7 7 7zm0 0"/></svg>