<?xml version="1.0" encoding="iso-8859-1"?>
<!-- Generator: Adobe Illustrator 19.0.0, SVG Export Plug-In . SVG Version: 6.00 Build 0)  -->
<svg version="1.1" id="Capa_1" xmlns="http://www.w3.org/2000/svg" xmlns:xlink="http://www.w3.org/1999/xlink" x="0px" y="0px"
	 viewBox="0 0 429.453 429.453" style="enable-background:new 0 0 429.453 429.453;" xml:space="preserve">
<g>
	<g>
		<g>
			<path d="M295.709,57.469H71.056C57.7,58.035,47.25,69.182,47.546,82.547v339.592l30.302-28.212
				c5.178-4.196,12.586-4.196,17.763,0l39.706,35.527l39.184-35.527c5.01-4.646,12.754-4.646,17.763,0l39.184,35.527l39.706-35.527
				c5.101-4.408,12.663-4.408,17.763,0l30.302,28.212V82.547C319.516,69.182,309.066,58.035,295.709,57.469z M113.897,154.122
				l64.261-56.947c2.975-2.661,7.474-2.661,10.449,0l64.261,56.947c3.137,2.903,3.369,7.784,0.522,10.971
				c-1.584,1.778-3.891,2.739-6.269,2.612c-1.854-0.024-3.664-0.567-5.224-1.567l-6.269-5.224v54.857
				c0,4.18-2.612,8.882-6.792,8.882H137.93c-4.18,0-6.792-4.702-6.792-8.882v-54.857l-6.269,5.224
				c-3.496,2.777-8.556,2.317-11.494-1.045C110.528,161.906,110.76,157.025,113.897,154.122z M97.701,261.224h87.771
				c4.328,0,7.837,3.509,7.837,7.837c0,4.328-3.509,7.837-7.837,7.837H97.701c-4.328,0-7.837-3.509-7.837-7.837
				C89.864,264.733,93.373,261.224,97.701,261.224z M269.064,360.49H97.701c-4.328,0-7.837-3.509-7.837-7.837
				s3.509-7.837,7.837-7.837h171.363c4.328,0,7.837,3.509,7.837,7.837S273.392,360.49,269.064,360.49z M269.064,318.694H97.701
				c-4.328,0-7.837-3.509-7.837-7.837s3.509-7.837,7.837-7.837h171.363c4.328,0,7.837,3.509,7.837,7.837
				S273.392,318.694,269.064,318.694z"/>
			<polygon points="219.954,146.808 183.383,113.371 146.811,146.808 146.811,208.98 219.954,208.98 			"/>
			<path d="M358.403,0H133.75c-13.061,0-23.51,8.359-23.51,21.42v20.376h185.469c21.892,0.843,39.2,18.843,39.184,40.751v249.208
				c5.032-3.684,11.926-3.469,16.718,0.522l30.302,28.212V21.42C381.913,8.359,371.464,0,358.403,0z"/>
		</g>
	</g>
</g>
<g>
</g>
<g>
</g>
<g>
</g>
<g>
</g>
<g>
</g>
<g>
</g>
<g>
</g>
<g>
</g>
<g>
</g>
<g>
</g>
<g>
</g>
<g>
</g>
<g>
</g>
<g>
</g>
<g>
</g>
</svg>
